<svg xmlns="http://www.w3.org/2000/svg" viewBox="0 0 32 32" width="32" height="32" fill="none">
  <rect width="32" height="32" rx="7" fill="#080a10" stroke="#f43f5e" stroke-width="1.2" stroke-opacity="0.5"/>
  <defs>
    <linearGradient id="rose-grad" x1="0" y1="0" x2="32" y2="32" gradientUnits="userSpaceOnUse">
      <stop offset="0%" stop-color="#fb7185"/>
      <stop offset="100%" stop-color="#e11d48"/>
    </linearGradient>
    <filter id="glow" x="-20%" y="-20%" width="140%" height="140%">
      <feGaussianBlur stdDeviation="1" result="blur"/>
      <feMerge>
        <feMergeNode in="blur"/>
        <feMergeNode in="SourceGraphic"/>
      </feMerge>
    </filter>
  </defs>
  <!-- Background Heart Glyph -->
  <path d="M16 26.5s-8.5-5.3-10.8-10.2C3.1 11.8 5.6 7 10.2 7c2.6 0 4.6 1.4 5.8 3.2C17.2 8.4 19.2 7 21.8 7c4.6 0 7.1 4.8 5 9.3-2.3 4.9-10.8 10.2-10.8 10.2z" fill="#f43f5e" fill-opacity="0.16" stroke="#f43f5e" stroke-width="1.2" stroke-opacity="0.6"/>
  <!-- ECG Lead II Pulse Wave -->
  <path d="M 4 16 L 9.5 16 L 11 14.5 L 12.5 16 L 14 16 L 15.5 8.5 L 17.5 23 L 19 16 L 20.5 16 L 22 14 L 23.5 16 L 28 16" stroke="#f43f5e" stroke-width="1.8" stroke-linecap="round" stroke-linejoin="round" filter="url(#glow)"/>
  <path d="M 4 16 L 9.5 16 L 11 14.5 L 12.5 16 L 14 16 L 15.5 8.5 L 17.5 23 L 19 16 L 20.5 16 L 22 14 L 23.5 16 L 28 16" stroke="#ffffff" stroke-width="1.0" stroke-linecap="round" stroke-linejoin="round"/>
</svg>
